<?xml version="1.0" encoding="utf-8"?>
<!-- Generator: Adobe Illustrator 27.2.0, SVG Export Plug-In . SVG Version: 6.00 Build 0)  -->
<svg version="1.1" id="Layer_1" xmlns="http://www.w3.org/2000/svg" xmlns:xlink="http://www.w3.org/1999/xlink" x="0px" y="0px"
	 viewBox="0 0 161.08 80" style="enable-background:new 0 0 161.08 80;" xml:space="preserve">
<style type="text/css">
	.st0{fill:#646567;}
	.st1{fill:#0047BB;}
	.st2{fill:#C5C6C8;}
	.st3{fill:url(#SVGID_1_);}
</style>
<g>
	<g>
		<path class="st0" d="M30.28,46.81c-0.62-0.24-0.81-0.67-0.56-1.29l5.57-13.71c0.23-0.51,0.6-0.77,1.1-0.77h0.05
			c0.51,0.02,0.85,0.28,1.03,0.77l5.66,13.71c0.25,0.62,0.07,1.05-0.54,1.29c-0.62,0.24-1.05,0.06-1.29-0.54l-1.26-3.07h-7.29
			l-1.21,3.07C31.3,46.88,30.88,47.06,30.28,46.81z M33.52,41.24h5.71l-2.91-7.09L33.52,41.24z"/>
		<path class="st0" d="M46.97,46.9c-0.34,0-0.58-0.08-0.74-0.24c-0.16-0.16-0.24-0.41-0.24-0.74V32.04c0-0.34,0.08-0.59,0.24-0.75
			c0.16-0.16,0.41-0.23,0.74-0.23c0.34,0,0.59,0.08,0.75,0.23c0.16,0.16,0.23,0.41,0.23,0.75v13.88c0,0.34-0.08,0.58-0.23,0.74
			C47.56,46.82,47.31,46.9,46.97,46.9z"/>
		<path class="st1" d="M60.86,46.9c-1.26,0-2.2-0.3-2.82-0.91c-0.61-0.61-0.92-1.54-0.92-2.8v-2.21c0-1.28,0.31-2.22,0.92-2.83
			c0.61-0.61,1.55-0.91,2.82-0.91h1.56c1.27,0,2.21,0.3,2.82,0.91c0.61,0.61,0.91,1.55,0.91,2.82v2.19c0,1.26-0.3,2.2-0.91,2.82
			s-1.55,0.92-2.82,0.92H60.86z M58.73,43.18c0,0.82,0.15,1.38,0.45,1.67c0.3,0.3,0.86,0.44,1.69,0.44h1.56
			c0.83,0,1.4-0.15,1.69-0.45c0.3-0.3,0.44-0.86,0.44-1.69v-2.19c0-0.83-0.15-1.4-0.44-1.69c-0.3-0.3-0.86-0.44-1.69-0.44h-1.56
			c-0.55,0-0.98,0.06-1.29,0.19c-0.31,0.12-0.53,0.34-0.65,0.65c-0.13,0.31-0.19,0.74-0.19,1.3V43.18z"/>
		<path class="st1" d="M69.95,46.9c-0.53,0-0.8-0.27-0.8-0.8v-8.06c0-0.53,0.27-0.8,0.8-0.8c0.53,0,0.8,0.27,0.8,0.8v0.31
			c0.67-0.74,1.66-1.12,2.97-1.12h0.53c1.27,0,2.21,0.3,2.82,0.91C77.69,38.76,78,39.7,78,40.97v5.13c0,0.53-0.27,0.8-0.8,0.8
			c-0.53,0-0.8-0.27-0.8-0.8v-5.13c0-0.83-0.15-1.4-0.45-1.69c-0.3-0.3-0.86-0.44-1.68-0.44h-0.53c-0.76,0-1.43,0.09-1.99,0.26
			c-0.57,0.17-0.89,0.45-0.98,0.82v6.18C70.75,46.63,70.49,46.9,69.95,46.9z"/>
		<path class="st0" d="M87.53,46.9c-0.53,0-0.8-0.27-0.8-0.8V34.78c0-0.53,0.27-0.8,0.8-0.8h4.59c1.66,0,2.88,0.39,3.66,1.18
			s1.18,2.01,1.18,3.66v3.24c0,1.66-0.39,2.88-1.17,3.66s-2,1.18-3.67,1.18H87.53z M88.33,45.3h3.79c0.81,0,1.46-0.1,1.93-0.3
			c0.47-0.2,0.81-0.54,1.01-1.01c0.2-0.47,0.3-1.12,0.3-1.93v-3.24c0-0.81-0.1-1.45-0.3-1.92c-0.2-0.47-0.54-0.81-1.01-1.02
			c-0.47-0.2-1.12-0.3-1.93-0.3h-3.79V45.3z"/>
		<path class="st0" d="M101.1,42.73v0.46c0,0.82,0.15,1.38,0.45,1.67c0.3,0.3,0.86,0.44,1.69,0.44h1.56c0.65,0,1.13-0.06,1.44-0.18
			c0.31-0.12,0.52-0.33,0.62-0.64c0.07-0.24,0.17-0.43,0.29-0.55s0.31-0.19,0.57-0.19c0.27,0,0.47,0.07,0.61,0.21
			c0.14,0.14,0.18,0.34,0.13,0.61c-0.14,0.79-0.51,1.38-1.12,1.76c-0.61,0.39-1.46,0.58-2.54,0.58h-1.56c-1.26,0-2.2-0.3-2.82-0.91
			c-0.61-0.61-0.92-1.54-0.92-2.8v-2.21c0-1.29,0.31-2.24,0.92-2.84s1.55-0.9,2.82-0.89h1.56c1.27,0,2.21,0.3,2.82,0.91
			c0.61,0.61,0.91,1.55,0.91,2.83v0.95c0,0.53-0.27,0.8-0.8,0.8H101.1z M103.23,38.84c-0.83-0.01-1.39,0.13-1.69,0.43
			c-0.3,0.3-0.45,0.87-0.45,1.71v0.15h5.83v-0.15c0-0.83-0.15-1.4-0.44-1.69c-0.3-0.3-0.86-0.44-1.69-0.44H103.23z"/>
		<path class="st0" d="M122.1,37.24c1.2,0,2.06,0.28,2.59,0.85c0.52,0.57,0.79,1.5,0.79,2.81v5.2c0,0.53-0.27,0.8-0.8,0.8
			c-0.53,0-0.8-0.27-0.8-0.8v-5.2c0-0.72-0.14-1.25-0.41-1.57c-0.28-0.32-0.73-0.49-1.36-0.49h-0.78c-0.72,0-1.24,0.16-1.55,0.49
			c-0.31,0.32-0.47,0.85-0.47,1.57v5.2c0,0.53-0.27,0.8-0.8,0.8c-0.53,0-0.8-0.27-0.8-0.8v-5.2c0-0.72-0.14-1.25-0.41-1.57
			c-0.28-0.32-0.73-0.49-1.36-0.49h-0.78c-0.72,0-1.24,0.16-1.55,0.49c-0.31,0.32-0.47,0.85-0.47,1.57v5.2c0,0.53-0.27,0.8-0.8,0.8
			c-0.53,0-0.8-0.27-0.8-0.8v-8.06c0-0.53,0.27-0.8,0.8-0.8c0.53,0,0.8,0.27,0.8,0.8v0.44c0.34-0.44,0.71-0.75,1.11-0.95
			c0.4-0.19,0.88-0.29,1.44-0.29h0.25c0.79,0,1.41,0.11,1.86,0.33c0.45,0.22,0.79,0.57,1.03,1.06c0.34-0.5,0.69-0.86,1.07-1.07
			c0.38-0.21,0.86-0.32,1.43-0.32H122.1z"/>
		<path class="st0" d="M131.33,46.9c-1.07,0-1.86-0.26-2.38-0.78c-0.52-0.52-0.78-1.32-0.78-2.38c0-1.07,0.26-1.86,0.78-2.38
			c0.52-0.52,1.31-0.78,2.39-0.78h4.03c-0.04-0.67-0.21-1.12-0.52-1.37c-0.31-0.24-0.85-0.37-1.6-0.37h-1.11
			c-0.64,0-1.11,0.04-1.42,0.13c-0.31,0.09-0.53,0.24-0.66,0.46c-0.11,0.27-0.23,0.45-0.35,0.55c-0.12,0.1-0.3,0.15-0.54,0.15
			c-0.27,0-0.48-0.07-0.63-0.22c-0.15-0.15-0.2-0.35-0.13-0.6c0.19-0.72,0.59-1.24,1.2-1.58c0.61-0.33,1.45-0.5,2.54-0.5h1.11
			c1.27,0,2.21,0.3,2.82,0.91c0.61,0.61,0.91,1.55,0.91,2.82v5.13c0,0.53-0.27,0.8-0.8,0.8c-0.53,0-0.8-0.27-0.8-0.8v-0.43
			c-0.68,0.82-1.67,1.23-2.97,1.23H131.33z M131.33,45.3h1.07c0.47,0,0.91-0.04,1.32-0.13c0.41-0.09,0.77-0.24,1.06-0.47
			c0.3-0.23,0.49-0.56,0.59-0.98v-1.54h-4.04c-0.63,0-1.05,0.1-1.25,0.31c-0.21,0.21-0.31,0.63-0.31,1.25c0,0.63,0.1,1.05,0.31,1.25
			C130.28,45.2,130.7,45.3,131.33,45.3z"/>
		<path class="st0" d="M141.03,46.9c-0.53,0-0.8-0.27-0.8-0.8v-8.06c0-0.53,0.27-0.8,0.8-0.8c0.53,0,0.8,0.27,0.8,0.8v0.31
			c0.67-0.74,1.66-1.12,2.97-1.12h0.53c1.27,0,2.21,0.3,2.82,0.91c0.61,0.61,0.91,1.55,0.91,2.82v5.13c0,0.53-0.27,0.8-0.8,0.8
			c-0.53,0-0.8-0.27-0.8-0.8v-5.13c0-0.83-0.15-1.4-0.45-1.69c-0.3-0.3-0.86-0.44-1.68-0.44h-0.53c-0.76,0-1.43,0.09-1.99,0.26
			c-0.57,0.17-0.89,0.45-0.98,0.82v6.18C141.83,46.63,141.56,46.9,141.03,46.9z"/>
		<path class="st0" d="M155.61,46.9c-1.26,0-2.2-0.31-2.82-0.92c-0.61-0.61-0.92-1.55-0.92-2.82v-2.19c0-1.27,0.31-2.21,0.92-2.82
			c0.61-0.61,1.55-0.91,2.82-0.91h3.7v-2.95c0-0.53,0.27-0.8,0.8-0.8c0.53,0,0.8,0.27,0.8,0.8V46.1c0,0.53-0.27,0.8-0.8,0.8
			c-0.53,0-0.8-0.27-0.8-0.8v-0.13c-0.3,0.3-0.69,0.54-1.17,0.7c-0.48,0.16-1.08,0.24-1.8,0.24H155.61z M155.61,45.3h0.72
			c0.84,0,1.54-0.11,2.12-0.32c0.57-0.22,0.86-0.55,0.86-0.99v-5.15h-3.7c-0.83,0-1.39,0.15-1.69,0.45c-0.3,0.3-0.45,0.86-0.45,1.68
			v2.19c0,0.83,0.15,1.39,0.45,1.69C154.23,45.15,154.79,45.3,155.61,45.3z"/>
	</g>
	<g>
		<g>
			<g>
				<g>
					<path class="st2" d="M40.38,17.24c-0.4,0-0.72-0.32-0.72-0.72V0.72c0-0.4,0.32-0.72,0.72-0.72s0.72,0.32,0.72,0.72v15.8
						C41.1,16.91,40.78,17.24,40.38,17.24z"/>
				</g>
			</g>
			<g>
				<g>
					<path class="st2" d="M47.01,17.49L51.1,2.22c0.1-0.38-0.13-0.78-0.51-0.88c-0.39-0.1-0.78,0.13-0.88,0.51l-4.09,15.26
						c-0.1,0.38,0.13,0.78,0.51,0.88c0.06,0.02,0.12,0.03,0.19,0.03C46.64,18.02,46.92,17.81,47.01,17.49z"/>
				</g>
			</g>
			<g>
				<g>
					<path class="st2" d="M52.47,19.95l7.9-13.68c0.2-0.34,0.08-0.78-0.26-0.98c-0.34-0.19-0.78-0.08-0.98,0.26l-7.9,13.68
						c-0.2,0.34-0.08,0.78,0.26,0.98c0.11,0.06,0.24,0.1,0.36,0.1C52.09,20.31,52.33,20.18,52.47,19.95z"/>
				</g>
			</g>
			<g>
				<g>
					<path class="st2" d="M57.11,23.74l11.17-11.17c0.28-0.28,0.28-0.74-0.01-1.02c-0.27-0.28-0.74-0.28-1.02,0L56.08,22.73
						c-0.28,0.28-0.28,0.74,0.01,1.02c0.13,0.14,0.32,0.21,0.51,0.21C56.78,23.96,56.97,23.89,57.11,23.74z"/>
				</g>
			</g>
			<g>
				<g>
					<path class="st2" d="M60.6,28.61l13.68-7.9c0.34-0.2,0.46-0.64,0.26-0.98c-0.21-0.35-0.65-0.46-0.98-0.26l-13.68,7.9
						c-0.34,0.2-0.46,0.64-0.26,0.98c0.13,0.23,0.38,0.36,0.62,0.36C60.36,28.71,60.49,28.67,60.6,28.61z"/>
				</g>
			</g>
			<g>
				<g>
					<path class="st2" d="M24.67,23.74c0.28-0.28,0.29-0.74,0.01-1.02L13.5,11.55c-0.28-0.28-0.75-0.28-1.02,0
						c-0.28,0.28-0.29,0.74-0.01,1.02l11.17,11.17c0.14,0.14,0.33,0.21,0.51,0.21S24.53,23.89,24.67,23.74z"/>
				</g>
			</g>
			<g>
				<g>
					<path class="st2" d="M29.27,20.22c0.34-0.2,0.46-0.64,0.26-0.98l-7.9-13.68c-0.21-0.35-0.65-0.46-0.98-0.26
						c-0.34,0.2-0.46,0.64-0.26,0.98l7.9,13.68c0.13,0.23,0.38,0.36,0.62,0.36C29.03,20.31,29.16,20.28,29.27,20.22z"/>
				</g>
			</g>
			<g>
				<g>
					<path class="st2" d="M34.63,17.99c0.38-0.1,0.61-0.5,0.51-0.88L31.05,1.85c-0.11-0.39-0.52-0.62-0.88-0.51
						c-0.38,0.1-0.61,0.5-0.51,0.88l4.09,15.26c0.09,0.32,0.38,0.53,0.7,0.53C34.5,18.02,34.57,18.01,34.63,17.99z"/>
				</g>
			</g>
			<linearGradient id="SVGID_1_" gradientUnits="userSpaceOnUse" x1="1.2777" y1="48.6953" x2="66.3132" y2="37.2278">
				<stop  offset="0" style="stop-color:#0047BB"/>
				<stop  offset="0.3156" style="stop-color:#0047BB"/>
				<stop  offset="0.4601" style="stop-color:#0047BB"/>
				<stop  offset="0.5309" style="stop-color:#6789C2"/>
				<stop  offset="0.5822" style="stop-color:#ABB5C6"/>
				<stop  offset="0.6062" style="stop-color:#C5C6C8"/>
				<stop  offset="0.8424" style="stop-color:#E9DE4D"/>
				<stop  offset="1" style="stop-color:#FFED00"/>
			</linearGradient>
			<path class="st3" d="M46.32,18.37c-0.09,0-0.19-0.01-0.28-0.04c-0.57-0.15-0.91-0.74-0.75-1.3l2.11-7.9
				c0.15-0.57,0.73-0.91,1.3-0.75c0.57,0.15,0.91,0.74,0.75,1.3l-2.11,7.9C47.22,18.05,46.79,18.37,46.32,18.37z M52.77,20.12
				l3.19-5.52c0.29-0.51,0.12-1.16-0.39-1.45c-0.51-0.3-1.16-0.12-1.46,0.39l-3.19,5.52c-0.29,0.51-0.12,1.16,0.39,1.45
				c0.17,0.1,0.35,0.14,0.53,0.14C52.21,20.66,52.57,20.47,52.77,20.12z M57.27,23.91l3.48-3.48c0.37-0.37,0.37-0.97,0.01-1.34
				c-0.37-0.37-0.97-0.37-1.34,0l-3.48,3.48c-0.37,0.37-0.37,0.97-0.01,1.34c0.19,0.19,0.43,0.28,0.67,0.28
				C56.84,24.19,57.08,24.09,57.27,23.91z M60.69,28.76l3.21-1.85c0.43-0.25,0.57-0.79,0.33-1.22c-0.24-0.42-0.79-0.58-1.21-0.33
				l-3.21,1.85c-0.43,0.25-0.57,0.79-0.33,1.22c0.16,0.29,0.46,0.44,0.77,0.44C60.39,28.88,60.54,28.84,60.69,28.76z M69.17,68.25
				c0.78-0.78,0.78-2.04,0-2.81L58,54.26c-0.78-0.78-2.04-0.78-2.81,0c-0.78,0.78-0.78,2.04,0,2.81l11.17,11.17
				c0.39,0.39,0.9,0.58,1.41,0.58C68.27,68.83,68.78,68.64,69.17,68.25z M60.71,74.67c0.92-0.53,1.24-1.71,0.7-2.63l-7.9-13.68
				c-0.53-0.93-1.73-1.24-2.64-0.71c-0.92,0.53-1.24,1.71-0.7,2.63l7.9,13.68c0.35,0.62,1.01,0.96,1.67,0.96
				C60.08,74.93,60.41,74.85,60.71,74.67z M50.89,78.68c1-0.27,1.59-1.29,1.32-2.29l-4.09-15.26c-0.26-1-1.26-1.58-2.29-1.32
				c-1,0.27-1.59,1.29-1.32,2.29l4.09,15.26c0.22,0.84,0.98,1.39,1.81,1.39C50.56,78.74,50.72,78.72,50.89,78.68z M42.19,78.19
				v-15.8c0-1-0.82-1.81-1.82-1.81s-1.82,0.81-1.82,1.81v15.8c0,1,0.82,1.81,1.82,1.81S42.19,79.19,42.19,78.19z M32.05,77.32
				l4.09-15.26c0.25-0.94-0.31-1.9-1.24-2.15c-0.93-0.25-1.9,0.3-2.15,1.24l-4.09,15.26c-0.25,0.94,0.31,1.9,1.24,2.15
				c0.15,0.04,0.3,0.06,0.46,0.06C31.13,78.62,31.84,78.11,32.05,77.32z M22.49,73.85l7.9-13.68c0.47-0.81,0.19-1.85-0.62-2.32
				c-0.82-0.47-1.85-0.2-2.32,0.62l-7.9,13.68c-0.47,0.81-0.19,1.85,0.62,2.32c0.27,0.15,0.56,0.23,0.85,0.23
				C21.6,74.7,22.17,74.39,22.49,73.85z M14.15,68l11.17-11.17c0.64-0.64,0.64-1.68,0-2.32s-1.68-0.64-2.32,0L11.83,65.68
				c-0.64,0.64-0.64,1.68,0,2.32c0.32,0.32,0.74,0.48,1.16,0.48C13.41,68.48,13.83,68.32,14.15,68z M7.63,60.19l13.68-7.9
				c0.75-0.44,1.02-1.41,0.58-2.17c-0.44-0.76-1.41-1.02-2.17-0.58l-13.68,7.9c-0.75,0.44-1.02,1.41-0.58,2.17
				c0.29,0.51,0.83,0.79,1.37,0.79C7.1,60.4,7.37,60.34,7.63,60.19z M3.36,50.95l15.26-4.09c0.82-0.22,1.3-1.05,1.08-1.87
				c-0.22-0.82-1.07-1.31-1.87-1.08L2.57,48c-0.82,0.22-1.3,1.05-1.08,1.87C1.67,50.56,2.29,51,2.96,51
				C3.09,51,3.23,50.99,3.36,50.95z M18.91,39.45c0-0.81-0.66-1.47-1.47-1.47H1.64c-0.81,0-1.47,0.66-1.47,1.47s0.66,1.47,1.47,1.47
				h15.8C18.26,40.92,18.91,40.26,18.91,39.45z M19.58,33.88c0.2-0.75-0.24-1.53-1-1.73L3.33,28.06c-0.79-0.2-1.53,0.25-1.73,1
				c-0.2,0.75,0.24,1.53,1,1.73l15.26,4.09c0.12,0.03,0.25,0.05,0.37,0.05C18.85,34.93,19.42,34.51,19.58,33.88z M21.69,28.66
				c0.38-0.65,0.15-1.48-0.49-1.85l-13.69-7.9c-0.65-0.38-1.48-0.15-1.84,0.49c-0.38,0.65-0.15,1.48,0.49,1.85l13.69,7.9
				c0.21,0.12,0.44,0.18,0.67,0.18C20.98,29.34,21.44,29.1,21.69,28.66z M25.08,24.15c0.51-0.51,0.51-1.33,0-1.83L14.61,11.85
				c-0.51-0.51-1.33-0.51-1.83,0c-0.51,0.51-0.51,1.33,0,1.83l10.47,10.47c0.25,0.25,0.58,0.38,0.92,0.38S24.83,24.41,25.08,24.15z
				 M29.53,20.66c0.59-0.34,0.79-1.1,0.46-1.69L23.22,7.25c-0.35-0.59-1.11-0.8-1.69-0.45c-0.59,0.34-0.79,1.1-0.46,1.69l6.77,11.72
				c0.23,0.4,0.65,0.62,1.07,0.62C29.12,20.83,29.33,20.78,29.53,20.66z M34.75,18.44c0.63-0.17,1.01-0.82,0.84-1.45L32.52,5.55
				c-0.17-0.63-0.82-1-1.45-0.84c-0.63,0.17-1.01,0.82-0.84,1.45l3.07,11.45c0.14,0.53,0.62,0.87,1.14,0.87
				C34.54,18.48,34.65,18.47,34.75,18.44z M41.5,16.52V6.47c0-0.62-0.51-1.12-1.12-1.12s-1.12,0.5-1.12,1.12v10.05
				c0,0.62,0.51,1.12,1.12,1.12S41.5,17.14,41.5,16.52z"/>
		</g>
	</g>
</g>
</svg>
